<svg width="120" height="75" viewBox="0 0 120 75" fill="none" xmlns="http://www.w3.org/2000/svg">
<g clip-path="url(#clip0_719_3264)">
<path d="M112.332 9.21977C112.332 9.30722 112.332 9.41653 112.309 9.48212C112.197 10.3347 112.197 11.1874 112.264 12.0619C112.309 12.2805 112.354 12.4991 112.534 12.674C112.826 13.002 113.276 12.9364 113.456 12.5429C113.546 12.3461 113.546 12.1493 113.501 11.9526C113.276 11.1218 113.231 10.2473 113.209 9.39466C113.209 9.35094 113.209 9.28535 113.209 9.21977C113.456 9.1979 113.681 9.17603 113.883 9.17603C114.041 9.15418 114.176 9.13231 114.288 9.06672C114.625 8.89183 114.625 8.52018 114.266 8.34527C114.131 8.27968 113.951 8.25781 113.793 8.25781C113.231 8.27968 112.669 8.27968 112.107 8.27968C111.905 8.27968 111.702 8.30155 111.5 8.3234C111.387 8.34527 111.252 8.34527 111.162 8.41086C111.005 8.47644 110.915 8.58575 110.915 8.73878C110.937 8.89183 111.005 8.97928 111.162 9.04487C111.252 9.11046 111.365 9.13231 111.477 9.13231C111.747 9.15418 112.039 9.1979 112.332 9.21977ZM118.516 10.2254C118.516 10.2473 118.538 10.2692 118.538 10.2692C118.628 10.8594 118.718 11.4279 118.786 11.9963C118.808 12.193 118.831 12.3679 118.966 12.521C119.258 12.8926 119.708 12.8489 119.91 12.4554C120 12.2586 120.023 12.0619 119.978 11.8433C119.843 11.1874 119.775 10.5315 119.64 9.8975C119.55 9.50397 119.438 9.13231 119.325 8.78252C119.258 8.5639 119.101 8.41085 118.831 8.38899C118.561 8.34527 118.358 8.47644 118.246 8.67321C118.111 8.8481 117.999 9.023 117.909 9.21977C117.751 9.56956 117.616 9.91937 117.437 10.2473C117.414 10.3348 117.391 10.4003 117.347 10.4659C117.324 10.4222 117.302 10.4003 117.302 10.4003C117.009 9.85378 116.739 9.30722 116.447 8.78252C116.402 8.73878 116.379 8.69506 116.357 8.65134C116.222 8.45458 116.065 8.34527 115.817 8.34527C115.592 8.36713 115.412 8.49831 115.3 8.69506C115.255 8.78252 115.255 8.8481 115.233 8.93556C115.143 9.63515 115.03 10.3348 114.94 11.0343C114.895 11.4279 114.873 11.8214 114.873 12.2149C114.85 12.3024 114.873 12.4117 114.918 12.4991C114.963 12.674 115.098 12.7833 115.278 12.8052C115.502 12.8271 115.66 12.7615 115.727 12.5866C115.795 12.4554 115.817 12.3461 115.84 12.2368C115.93 11.8433 115.997 11.4716 116.065 11.0999C116.11 10.8813 116.132 10.7064 116.2 10.4659C116.245 10.5534 116.289 10.619 116.335 10.6845C116.537 10.9469 116.739 11.2092 116.987 11.4279C117.234 11.6028 117.437 11.5809 117.639 11.3841C117.684 11.3404 117.706 11.3186 117.751 11.2748C117.954 10.9688 118.201 10.6627 118.403 10.3566C118.448 10.3129 118.471 10.2692 118.516 10.2254Z" fill="#3A3B7B"/>
<path d="M66.7006 9.65001C66.5442 10.0655 66.5144 10.3648 66.5866 10.6136C66.6663 10.9519 66.8732 11.0627 67.154 10.9767C69.7954 10.3417 75.5875 12.144 77.7319 12.6464C78.2376 12.7519 78.649 12.1172 78.3039 11.5481C77.8002 10.9971 72.0108 8.63768 69.8017 8.50904C68.9359 8.46146 67.3878 8.2456 66.7006 9.65001Z" fill="#3A3B7B"/>
<path d="M89.3369 2.01022C89.6183 2.16818 89.7757 2.31887 89.8534 2.48722C89.9691 2.70807 89.9081 2.86086 89.7137 2.93883C87.9677 3.76727 85.6443 7.33388 84.7064 8.56396C84.4791 8.84693 83.9547 8.6825 83.8755 8.21716C83.8918 7.691 85.9513 3.82043 87.1007 2.76622C87.5525 2.35463 88.2987 1.54703 89.3369 2.01022Z" fill="#3A3B7B"/>
<path d="M75.4327 0.255334C75.7709 0.00753218 76.1223 -0.079305 76.3018 0.081735C78.9362 2.27199 80.3331 5.74045 81.1982 8.91574C81.2307 8.98972 81.2328 9.09588 81.2067 9.20662C81.1959 9.30128 81.1248 9.40127 81.0118 9.47864C80.8911 9.56405 80.7872 9.59006 80.7384 9.51646C79.5838 7.98975 72.9895 2.04958 75.4327 0.255334Z" fill="#3A3B7B"/>
<path d="M19.6474 38.2295C20.2788 37.7725 20.9652 37.3921 21.6915 37.0968C22.4515 36.8856 23.2615 36.9206 23.9991 37.1967C24.7366 37.4729 25.3618 37.9748 25.7798 38.627C26.1537 39.2775 26.2999 40.0285 26.1967 40.7669C26.0935 41.5051 25.7463 42.1909 25.2074 42.7208C24.7896 43.1504 24.3153 43.5245 23.797 43.8337C21.4872 45.2844 19.1568 46.6556 16.8265 48.1063C16.3497 48.4694 15.8439 48.7951 15.3139 49.0801C14.5077 49.471 13.5863 49.5756 12.7092 49.376C11.832 49.1766 11.0542 48.6852 10.5101 47.9872C10.1035 47.4929 9.76025 46.9523 9.48807 46.3774C7.28042 41.8663 4.99101 37.375 2.8651 32.7843C1.88391 30.7972 1.08671 28.5117 0.309939 26.3059C-0.0261268 25.665 -0.0917529 24.9219 0.127035 24.2347C0.345823 23.5474 0.831763 22.9702 1.48149 22.6259C2.13122 22.2816 2.89346 22.1974 3.60612 22.391C4.31878 22.5847 4.92564 23.041 5.29761 23.6628C6.44095 25.14 7.45305 26.709 8.32293 28.3529C10.5306 32.3273 12.6361 36.3018 14.7619 40.1572C14.8857 40.3702 15.0222 40.5758 15.1708 40.7732C16.7709 40.1192 18.2758 39.264 19.6474 38.2295Z" fill="#3A3B7B"/>
<path d="M42.4732 36.8418C37.4243 42.5849 28.9615 41.1342 24.7098 33.7416C21.6844 28.4951 21.153 19.8306 27.7351 14.3656C29.1407 13.2215 30.8214 12.4421 32.6205 12.1001C34.8265 11.7926 37.076 12.171 39.0474 13.1811C41.0188 14.1911 42.6114 15.7812 43.5976 17.7241C47.1952 24.0834 46.6842 32.1914 42.4732 36.8418ZM40.4291 23.4475C39.8927 21.8847 38.8166 20.5506 37.3833 19.6716C36.5723 19.1096 35.5867 18.8363 34.5928 18.8979C33.5987 18.9594 32.6569 19.352 31.9255 20.0094C29.0025 22.5333 28.3892 28.5151 30.515 32.0723C30.7861 32.6524 31.184 33.1678 31.6813 33.5827C32.1786 33.9976 32.7631 34.3018 33.394 34.474C34.0249 34.6463 34.6867 34.6825 35.3335 34.58C35.9803 34.4774 36.5961 34.2388 37.1382 33.8806C38.7227 32.6863 39.8851 31.0417 40.4639 29.1756C41.0428 27.3093 41.0092 25.3141 40.3679 23.4674L40.4291 23.4475Z" fill="#3A3B7B"/>
<path d="M63.0781 25.9539C62.5612 26.062 62.0272 26.0685 61.5076 25.9728C60.9882 25.8772 60.4934 25.6817 60.0528 25.3975C59.6673 25.1831 59.3354 24.8884 59.081 24.5344C58.8268 24.1803 58.6564 23.776 58.5822 23.3502C58.5078 22.9246 58.5316 22.4882 58.6514 22.0725C58.7714 21.6568 58.9849 21.272 59.2761 20.946C59.7835 20.2907 60.5039 19.8216 61.3202 19.6145C63.4516 19.0132 65.6457 18.6465 67.8614 18.5216C68.3483 18.4665 68.8415 18.5066 69.312 18.6394C69.7828 18.7723 70.2213 18.9951 70.6022 19.2951C70.983 19.5949 71.2984 19.9658 71.5298 20.3858C71.7611 20.8058 71.9039 21.2666 71.9496 21.741C72.5884 24.0711 72.6583 26.5142 72.154 28.8753C70.3144 36.5064 63.9775 39.1295 56.8639 36.6852C54.8671 36.0317 53.1163 34.814 51.8354 33.1877C50.127 31.2291 48.9157 28.9081 48.299 26.4111C47.7995 24.1875 47.8542 21.8802 48.4588 19.6815C49.0632 17.4828 50.2 15.4566 51.774 13.772C53.2679 11.941 55.2067 10.5 57.4159 9.57879C58.8119 8.83075 60.4454 8.61806 61.9948 8.98261C62.3462 9.07717 62.6652 9.26144 62.9188 9.51628C63.1723 9.77115 63.3511 10.0873 63.4367 10.432C63.5222 10.7766 63.5113 11.1373 63.4051 11.4765C63.2989 11.8156 63.1014 12.121 62.8329 12.361C62.3224 12.8102 61.7678 13.2096 61.1771 13.5533C59.3598 14.6785 57.7783 16.1283 56.5164 17.826C55.6893 18.9245 55.1196 20.1861 54.8478 21.5216C54.5757 22.8571 54.6081 24.2344 54.9426 25.5566C55.4061 27.3593 56.4348 28.9774 57.886 30.1868C62.3831 34.1615 68.2293 30.3259 67.2073 24.9007C65.7151 25.2585 64.4068 25.636 63.0781 25.9539Z" fill="#3A3B7B"/>
<path d="M90.5516 37.1604C83.9083 41.135 76.345 37.1604 74.6892 28.8139C73.4832 22.8521 75.7726 14.5055 83.7857 11.3258C85.4906 10.6639 87.3397 10.4314 89.1617 10.6501C91.3507 11.0397 93.3588 12.0874 94.9027 13.6454C96.4465 15.2035 97.4487 17.1933 97.7674 19.3346C99.1165 26.4291 96.0504 34.0007 90.5516 37.1604ZM92.8616 23.786C92.8596 22.1351 92.2589 20.5376 91.165 19.2749C90.5803 18.4939 89.735 17.9343 88.7732 17.6914C87.8114 17.4487 86.7929 17.5376 85.891 17.9435C82.2934 19.4537 79.7587 24.9386 80.6786 28.9729C80.7488 29.606 80.9604 30.2166 81.2986 30.7618C81.6368 31.3071 82.0935 31.774 82.6368 32.1299C83.1799 32.4857 83.7965 32.7219 84.4433 32.822C85.0903 32.9219 85.7518 32.8833 86.3816 32.709C88.2833 32.0631 89.9299 30.8561 91.0915 29.2564C92.2532 27.6567 92.8721 25.7442 92.8616 23.786Z" fill="#3A3B7B"/>
<path d="M104.485 38.8295C104.385 39.5568 103.992 40.2156 103.392 40.661C102.792 41.1062 102.034 41.3018 101.286 41.2043C100.538 41.1068 99.8605 40.7243 99.4025 40.141C98.9442 39.5578 98.7433 38.8215 98.8436 38.0941C98.9439 37.3668 99.3373 36.708 99.9371 36.2626C100.537 35.8172 101.295 35.6219 102.043 35.7194C102.791 35.8169 103.468 36.1992 103.927 36.7825C104.385 37.3658 104.586 38.1022 104.485 38.8295ZM102.707 12.021C103.096 11.4438 103.666 11.0042 104.333 10.7678C105 10.5315 105.727 10.511 106.407 10.7094C107.098 10.8775 107.708 11.2713 108.136 11.8248C108.564 12.3783 108.784 13.058 108.758 13.75C108.667 14.8599 108.497 15.9623 108.247 17.0488C107.572 20.7253 106.918 24.4017 106.203 28.0385C105.875 29.4893 105.446 30.8803 104.976 32.3508C104.812 32.8106 104.539 33.226 104.179 33.5631C103.955 33.8168 103.669 34.0112 103.347 34.1287C103.025 34.2463 102.678 34.2829 102.337 34.2354C101.997 34.1878 101.674 34.0576 101.4 33.8568C101.125 33.6558 100.907 33.3908 100.765 33.0862C100.522 32.5397 100.39 31.9525 100.377 31.3573C100.377 28.893 100.377 26.409 100.54 23.9248C100.818 20.3797 101.365 16.8592 102.175 13.3922C102.271 12.9278 102.451 12.4836 102.707 12.0806V12.021Z" fill="#3A3B7B"/>
<path fill-rule="evenodd" clip-rule="evenodd" d="M11.0112 54.8C10.7699 55.3238 10.7037 55.9078 10.8216 56.4698C10.9001 57.2106 11.0724 57.9393 11.3347 58.6392C11.6622 59.4962 12.0286 60.3437 12.4804 61.3883C12.5843 61.6286 12.6929 61.8795 12.8065 62.1436C13.4158 63.5587 14.1803 65.3672 15.2 67.9845C15.4887 68.7281 15.745 69.4777 16.0031 70.2325C16.1073 70.5374 16.212 70.8434 16.3191 71.15C16.703 72.2403 17.3636 73.2197 18.2393 73.9959C18.6111 74.4226 19.1043 74.7335 19.6574 74.889C20.2212 75.0475 20.8208 75.0374 21.3787 74.8602C21.9365 74.6827 22.4264 74.3462 22.7849 73.8944C23.1363 73.4513 23.3453 72.9175 23.3859 72.3598C23.6139 71.2733 23.5361 70.1467 23.1603 69.0993C22.5639 67.3602 21.8846 65.6184 21.1011 63.9149L21.0975 63.9074C19.8087 61.2422 18.4987 58.5954 17.1266 55.9475L17.1164 55.929C16.7147 55.2391 16.1927 54.6224 15.5739 54.1066C15.1721 53.6462 14.6179 53.3357 14.0059 53.2286C13.3809 53.1194 12.7362 53.2295 12.1871 53.5395C11.6676 53.8279 11.2558 54.2692 11.0112 54.8Z" fill="#3A3B7B"/>
<path fill-rule="evenodd" clip-rule="evenodd" d="M30.6956 48.2347C28.6748 47.7259 26.5643 47.6518 24.5113 48.0176C22.9211 48.1698 21.3572 48.5264 20.2712 49.2327C19.7188 49.5922 19.2722 50.0538 19.0238 50.6405C18.7741 51.2304 18.7422 51.9051 18.9469 52.6568C19.3206 54.0337 19.8059 55.3725 20.2895 56.707L20.3678 56.9231L20.3697 56.9279C21.8258 60.8047 23.2958 64.6684 24.7792 68.5188C24.9522 69.1256 25.1968 69.711 25.5081 70.2631L25.514 70.2733C25.9252 70.9592 26.4527 71.5727 27.0741 72.0879C27.3849 72.3712 27.7693 72.5673 28.186 72.6549C28.6069 72.7432 29.0445 72.7176 29.4513 72.5806C29.8583 72.4437 30.2186 72.2008 30.4933 71.8783C30.7634 71.5611 30.9404 71.1789 31.0053 70.7722C31.2734 69.6673 31.1876 68.5091 30.759 67.4529C30.6253 67.0976 30.5204 66.7343 30.4098 66.352C30.3729 66.2245 30.3356 66.0948 30.2961 65.9627C33.6916 64.6723 37.3045 62.9373 38.5749 58.9009C39.0724 57.5061 39.1139 55.9957 38.6936 54.5768C38.2729 53.1564 37.4097 51.8974 36.2231 50.9732C34.6081 49.6795 32.7215 48.7447 30.6956 48.2347ZM25.0941 53.1856C25.161 53.1668 25.2284 53.1494 25.2959 53.1332C27.5065 52.7954 29.7681 53.2456 31.6645 54.4006C32.5002 54.9656 32.8425 55.5934 32.9013 56.1975C32.962 56.8195 32.7294 57.4935 32.2621 58.1414C31.379 59.3652 29.7676 60.3448 28.312 60.5274C27.2509 58.1516 26.1733 55.6797 25.0941 53.1856Z" fill="#3A3B7B"/>
<path d="M44.168 43.8863C46.5746 42.8058 49.5555 42.6191 51.8882 43.3788C52.4756 43.5452 52.9853 43.905 53.33 44.3968C53.6726 44.8855 53.8306 45.4744 53.7778 46.0632C53.7744 46.4453 53.6779 46.8213 53.4963 47.1605C53.3115 47.5059 53.0439 47.8028 52.7162 48.0264C52.3884 48.2499 52.01 48.3936 51.6132 48.4449C51.2162 48.4964 50.8124 48.4541 50.4358 48.3217L50.4072 48.3116L50.3803 48.2978C50.1876 48.1998 49.9829 48.126 49.7712 48.0779L49.7578 48.075C48.1169 47.6513 46.5691 48.3534 46.0037 49.216C45.734 49.6274 45.7006 50.0426 45.9252 50.4203C46.1657 50.8248 46.7556 51.2787 47.9492 51.6022C48.2775 51.6899 48.614 51.7744 48.9554 51.8603C49.8992 52.0979 50.8802 52.3447 51.8287 52.6868L51.8323 52.6882C56.2082 54.3068 57.8376 57.6592 57.2798 60.8122C56.7279 63.9304 54.0494 66.7681 50.0213 67.4375C48.5556 67.7533 47.0302 67.6918 45.5962 67.259C44.1586 66.8249 42.8628 66.0328 41.8375 64.9609L41.8107 64.933C41.4871 64.5292 41.2694 64.0548 41.1728 63.5514C41.084 63.0972 41.1308 62.6278 41.3074 62.1984C41.483 61.7716 41.7799 61.4022 42.163 61.133C42.5678 60.8279 43.0556 60.6449 43.5663 60.6067C44.0753 60.5687 44.5846 60.6762 45.0315 60.9159C45.4779 61.1255 45.8931 61.393 46.2658 61.711L46.2728 61.7168C46.9322 62.303 47.7298 62.4558 48.4947 62.3143C49.2708 62.1708 50.0006 61.7243 50.4699 61.132C50.9362 60.5434 51.1234 59.8442 50.9012 59.1655C50.6777 58.4818 50.0055 57.7158 48.5287 57.0754C48.1426 56.916 47.7423 56.7875 47.3259 56.6624C47.2136 56.6286 47.0995 56.595 46.9839 56.5609C46.676 56.4701 46.3592 56.3765 46.0486 56.2734C45.8347 56.2025 45.6224 56.1353 45.4123 56.0687C44.8378 55.8868 44.2778 55.7095 43.7388 55.4717C42.5657 55.0834 41.5522 54.3379 40.8492 53.3453C40.1432 52.3488 39.788 51.1572 39.8364 49.9483C39.8402 47.0024 41.7487 44.9728 44.168 43.8863Z" fill="#3A3B7B"/>
<path d="M74.6776 43.5743C74.211 43.3527 73.695 43.2475 73.1762 43.2682C72.6573 43.289 72.1519 43.4349 71.7057 43.6931C71.2622 43.9495 70.8909 44.3085 70.6249 44.7382C70.3809 45.1 70.2121 45.5047 70.1279 45.9296C70.0437 46.3542 70.0458 46.7906 70.1337 47.2142C70.2206 47.7586 70.317 48.2881 70.4121 48.8102C70.5697 49.6742 70.7229 50.5188 70.824 51.3799L70.8278 51.4017C71.0581 52.7523 71.1786 54.1181 71.1894 55.4869L71.1904 55.5063C71.2691 56.9845 70.751 58.4338 69.7473 59.5469L69.7314 59.5667C69.4048 59.9736 68.9682 60.2841 68.4702 60.4636C67.9723 60.6431 67.433 60.6844 66.9124 60.5828C66.3918 60.4812 65.9106 60.2408 65.5225 59.8885C65.1343 59.5362 64.8544 59.0845 64.7147 58.5866C64.4164 57.5371 64.2438 56.4576 64.1999 55.3698L64.7094 47.484C64.7169 47.3811 64.7255 47.2754 64.7342 47.1687C64.7536 46.9292 64.7735 46.6853 64.7817 46.4577C64.7937 46.1229 64.7834 45.7786 64.7032 45.4527C64.6211 45.1196 64.4649 44.8028 64.1879 44.5329C63.9136 44.2658 63.5433 44.0688 63.0774 43.9346C62.2348 43.6975 61.5223 43.705 60.9287 43.95C60.3347 44.1949 59.9277 44.6497 59.6397 45.175C59.3539 45.696 59.1703 46.3127 59.0315 46.9304C58.9285 47.3887 58.8457 47.8699 58.767 48.3279C58.7397 48.4858 58.7131 48.6407 58.6862 48.7912L58.6855 48.7957C58.2645 51.3075 58.1392 53.8578 58.312 56.3973C58.3442 57.7696 58.6386 59.1242 59.1803 60.3919C59.7914 62.0275 60.8983 63.4447 62.355 64.4563C63.8147 65.47 65.5566 66.0286 67.35 66.0581C69.1435 66.0876 70.9039 65.5866 72.3981 64.6217C73.8899 63.6581 75.046 62.2771 75.7135 60.6613C76.6473 58.6031 77.0858 56.3647 76.9953 54.1167C76.9404 52.4756 76.8486 50.8219 76.7572 49.1765C76.7123 48.3694 76.6675 47.564 76.6274 46.7635C76.6072 45.9608 76.335 45.1834 75.8471 44.5355C75.5452 44.1259 75.1434 43.7956 74.6776 43.5743Z" fill="#3A3B7B"/>
<path d="M91.1935 55.9372C91.1462 55.9956 91.0963 56.0561 91.0442 56.119C90.6646 53.9904 90.3128 51.8625 89.9606 49.7313C89.8342 48.9666 89.7072 48.1987 89.5795 47.433L89.5651 47.3476L89.5185 47.2738C89.4305 47.1349 89.4218 46.9987 89.4218 46.7082V46.6747L89.4164 46.6414C89.3211 46.0416 89.0421 45.4834 88.6157 45.0398C88.1906 44.5975 87.6384 44.2897 87.031 44.156C86.4247 44.0106 85.7875 44.0427 85.1996 44.2482C84.6134 44.4533 84.1023 44.8218 83.7303 45.3076C83.4211 45.6804 83.1675 46.0939 82.9776 46.5357C82.5464 47.4876 82.1115 48.4418 81.6754 49.3985L81.6679 49.4151C80.5791 51.8036 79.483 54.2082 78.4188 56.6318L78.4155 56.6396C77.7622 58.211 77.2229 59.8668 76.6855 61.5175C76.5782 61.847 76.4708 62.1763 76.3627 62.5048C76.1686 63.0257 76.0838 63.579 76.1129 64.1321C76.0776 64.6273 76.1995 65.1213 76.4624 65.5472C76.7306 65.9819 77.1322 66.3238 77.6107 66.5251C78.1178 66.7413 78.6847 66.7871 79.2218 66.6555C79.7576 66.5241 80.2335 66.2234 80.5745 65.8007C81.0099 65.28 81.3845 64.712 81.69 64.1103C82.5915 62.3175 83.4531 60.5028 84.3108 58.696C84.6427 57.9971 84.9651 57.3712 85.332 56.6896C85.3572 56.7736 85.3829 56.8556 85.4095 56.9377C85.794 58.5835 86.443 60.1598 87.3326 61.609C87.5009 61.916 87.7354 62.1843 88.02 62.3955C88.308 62.6093 88.6404 62.7593 88.994 62.8355C89.3477 62.9117 89.7142 62.912 90.068 62.8365C90.4214 62.7611 90.7548 62.611 91.043 62.3982L91.6133 61.9832L96.0401 58.3581L95.7783 59.98C95.419 62.2094 95.0624 64.4202 94.6836 66.6315C94.4357 67.6116 94.436 68.6354 94.6846 69.6151C94.7923 70.1665 95.0666 70.6742 95.4725 71.0734C95.8819 71.4758 96.4061 71.7492 96.9773 71.8583C97.5485 71.9672 98.1403 71.9069 98.6756 71.6848C99.2033 71.4661 99.6521 71.1003 99.9658 70.6341C100.696 69.7537 101.15 68.6879 101.275 67.5634C101.463 65.9754 101.675 64.3658 101.887 62.7567C102.132 60.902 102.377 59.0478 102.583 57.2292L102.584 57.2236C102.783 55.2328 102.879 53.2339 102.872 51.2338C102.916 50.6018 102.754 49.9721 102.409 49.434C102.063 48.894 101.55 48.4742 100.945 48.234C100.314 47.9555 99.6089 47.881 98.9319 48.0218C98.2594 48.1615 97.6507 48.5062 97.194 49.0055C96.3775 49.7396 95.6115 50.5252 94.901 51.3572L94.8962 51.3628C94.1204 52.3026 93.35 53.2607 92.5846 54.2127C92.1192 54.7914 91.6551 55.3687 91.1935 55.9372Z" fill="#3A3B7B"/>
</g>
<defs>
<clipPath id="clip0_719_3264">
<rect width="120" height="75" fill="white"/>
</clipPath>
</defs>
</svg>
